<svg width="32" height="32" viewBox="0 0 32 32" fill="none"
  xmlns="http://www.w3.org/2000/svg">
  <ellipse rx="15.9067" ry="15.9066" transform="matrix(0.999983 0.00588483 -0.00588738 0.999983 16.0002 16)" fill="white" />
  <path fill-rule="evenodd" clip-rule="evenodd" d="M8.83876 17.3436C8.56374 17.6153 8.56113 18.0584 8.83293 18.3333L17.6345 27.2357C17.9063 27.5106 18.3496 27.5132 18.6247 27.2415L27.5305 18.4433C27.8055 18.1716 27.8081 17.7285 27.5363 17.4536L18.7347 8.55123C18.4629 8.27631 18.0196 8.2737 17.7446 8.5454L8.83876 17.3436ZM12.8918 17.5093C12.6953 17.7034 12.6935 18.0199 12.8876 18.2162L17.7979 23.1827C17.9921 23.3791 18.3087 23.381 18.5051 23.1869L23.4735 18.2785C23.67 18.0845 23.6719 17.7679 23.4777 17.5716L18.5674 12.6051C18.3733 12.4087 18.0567 12.4069 17.8602 12.6009L12.8918 17.5093Z" fill="#144499" />
  <path d="M17.7847 14.6173L14.9028 18.7823C12.619 15.8425 8.27859 11.3659 5.44264 11.9361L11.5759 5.5405C14.6734 6.09778 17.0057 11.8239 17.7847 14.6173Z" fill="#144499" stroke="white" stroke-width="0.6" stroke-linecap="round" stroke-linejoin="round" />
</svg>
